<svg width="45" height="57" viewBox="0 0 45 57" fill="none" xmlns="http://www.w3.org/2000/svg">
<g filter="url(#filter0_d_245_462)">
<path d="M6.55859 48.749H30.5693C34.9268 48.749 37.1279 46.5029 37.1279 42.123V21.0547C37.1279 18.6289 36.8135 17.5508 35.3311 16.0234L22.124 2.68164C20.6865 1.22168 19.5186 0.884766 17.3398 0.884766H6.55859C2.24609 0.884766 0 3.1084 0 7.48828V42.123C0 46.5029 2.22363 48.749 6.55859 48.749ZM6.69336 45.9639C4.11035 45.9639 2.78516 44.5938 2.78516 42.0557V7.55566C2.78516 5.08496 4.11035 3.64746 6.71582 3.64746H17.2051V17.1689C17.2051 19.7295 18.5078 20.9424 21.001 20.9424H34.3652V42.0557C34.3652 44.5938 33.0176 45.9639 30.4346 45.9639H6.69336ZM21.293 18.3145C20.2598 18.3145 19.833 17.9102 19.833 16.877V4.20898L33.8037 18.3145H21.293ZM27.2451 28.0625H9.61328C8.96191 28.0625 8.46777 28.5342 8.46777 29.1631C8.46777 29.7695 8.96191 30.2637 9.61328 30.2637H27.2451C27.874 30.2637 28.3682 29.7695 28.3682 29.1631C28.3682 28.5342 27.874 28.0625 27.2451 28.0625ZM27.2451 35.9463H9.61328C8.96191 35.9463 8.46777 36.4404 8.46777 37.0693C8.46777 37.6758 8.96191 38.1475 9.61328 38.1475H27.2451C27.874 38.1475 28.3682 37.6758 28.3682 37.0693C28.3682 36.4404 27.874 35.9463 27.2451 35.9463Z" fill="white"/>
</g>
<defs>
<filter id="filter0_d_245_462" x="0" y="0.884766" width="44.6279" height="55.3643" filterUnits="userSpaceOnUse" color-interpolation-filters="sRGB">
<feFlood flood-opacity="0" result="BackgroundImageFix"/>
<feColorMatrix in="SourceAlpha" type="matrix" values="0 0 0 0 0 0 0 0 0 0 0 0 0 0 0 0 0 0 127 0" result="hardAlpha"/>
<feOffset dx="3.75" dy="3.75"/>
<feGaussianBlur stdDeviation="1.875"/>
<feComposite in2="hardAlpha" operator="out"/>
<feColorMatrix type="matrix" values="0 0 0 0 0.0196078 0 0 0 0 0.207843 0 0 0 0 0.317647 0 0 0 0.2 0"/>
<feBlend mode="normal" in2="BackgroundImageFix" result="effect1_dropShadow_245_462"/>
<feBlend mode="normal" in="SourceGraphic" in2="effect1_dropShadow_245_462" result="shape"/>
</filter>
</defs>
</svg>
