<svg width="67" height="59" viewBox="0 0 67 59" fill="none" xmlns="http://www.w3.org/2000/svg">
<g filter="url(#filter0_d_245_31)">
<path d="M34.8289 35.5298V38.5027H48.1465C55.1799 38.5027 59.3372 34.2488 59.3372 28.593C59.3372 23.9282 56.5576 19.9644 51.7961 18.2725C51.9653 7.71021 44.4485 0 34.853 0C28.2546 0 23.7107 3.57715 21.0278 7.90356C15.5413 6.30835 8.79785 10.4172 8.77368 17.0881C3.43213 17.7407 0 21.9946 0 27.5295C0 33.6687 4.44727 38.5027 12.085 38.5027H24.3633V35.5298H12.0608C6.16333 35.5298 2.99707 32.001 2.99707 27.5295C2.99707 22.9131 5.92163 19.4326 11.0457 19.4326C11.3599 19.4326 11.4807 19.2634 11.4807 18.9734C11.4807 11.8674 16.8464 9.52295 21.9463 10.9973C22.2122 11.0698 22.3813 11.0215 22.5022 10.7798C24.895 6.57422 28.5205 2.9729 34.853 2.9729C42.7566 2.9729 48.4124 9.23291 48.8958 16.7498C48.9683 17.7407 48.8716 18.925 48.8232 19.9644C48.7991 20.2544 48.9199 20.4236 49.1858 20.4719C53.5605 21.4871 56.3401 24.46 56.3401 28.593C56.3401 32.6052 53.5122 35.5298 48.1465 35.5298H34.8289ZM29.6082 50.8777C30.4058 50.8777 31.0825 50.2009 31.0825 49.4275V25.5476L30.9617 21.4871L33.1128 23.6865L37.2217 27.7954C37.5117 28.0854 37.8984 28.2546 38.261 28.2546C39.0103 28.2546 39.5903 27.6987 39.5903 26.9253C39.5903 26.5386 39.4695 26.2244 39.1553 25.9585L30.6716 17.8132C30.2849 17.4507 29.9707 17.3057 29.6082 17.3057C29.2214 17.3057 28.9072 17.4507 28.5205 17.8132L20.0127 25.9585C19.7227 26.2244 19.5776 26.5386 19.5776 26.9253C19.5776 27.6987 20.1335 28.2546 20.907 28.2546C21.2695 28.2546 21.6804 28.0854 21.9463 27.7954L26.0552 23.6865L28.2305 21.4629L28.1096 25.5476V49.4275C28.1096 50.2009 28.7864 50.8777 29.6082 50.8777Z" fill="#E0764C"/>
</g>
<defs>
<filter id="filter0_d_245_31" x="0" y="0" width="66.8369" height="58.3779" filterUnits="userSpaceOnUse" color-interpolation-filters="sRGB">
<feFlood flood-opacity="0" result="BackgroundImageFix"/>
<feColorMatrix in="SourceAlpha" type="matrix" values="0 0 0 0 0 0 0 0 0 0 0 0 0 0 0 0 0 0 127 0" result="hardAlpha"/>
<feOffset dx="3.75" dy="3.75"/>
<feGaussianBlur stdDeviation="1.875"/>
<feComposite in2="hardAlpha" operator="out"/>
<feColorMatrix type="matrix" values="0 0 0 0 0.0196078 0 0 0 0 0.207843 0 0 0 0 0.317647 0 0 0 0.2 0"/>
<feBlend mode="normal" in2="BackgroundImageFix" result="effect1_dropShadow_245_31"/>
<feBlend mode="normal" in="SourceGraphic" in2="effect1_dropShadow_245_31" result="shape"/>
</filter>
</defs>
</svg>
