<svg width="56" height="56" viewBox="0 0 56 56" fill="none" xmlns="http://www.w3.org/2000/svg">
<g filter="url(#filter0_d_245_32)">
<path d="M24.2424 48.4849C37.5117 48.4849 48.4849 37.5117 48.4849 24.2424C48.4849 10.949 37.5117 0 24.2183 0C10.949 0 0 10.949 0 24.2424C0 37.5117 10.9731 48.4849 24.2424 48.4849ZM24.2424 45.3428C12.5442 45.3428 3.14209 35.9165 3.14209 24.2424C3.14209 12.5442 12.5442 3.11792 24.2183 3.11792C35.9165 3.11792 45.3669 12.5442 45.3669 24.2424C45.3669 35.9165 35.9407 45.3428 24.2424 45.3428ZM24.2183 37.8501C24.7742 37.8501 25.1851 37.4634 25.1851 36.8833V35.0706C29.0281 34.7563 31.856 32.5327 31.856 29.1006C31.856 25.9827 29.8015 24.0974 25.6926 23.2998L25.1851 23.179V15.9038C27.2395 16.1697 28.738 17.3782 29.1489 19.1667C29.3423 19.7952 29.7048 20.1577 30.3333 20.1577C31.01 20.1577 31.4934 19.6985 31.4934 18.9976C31.4934 18.78 31.4451 18.5625 31.3967 18.3208C30.7925 15.783 28.3271 13.946 25.1851 13.656V11.9883C25.1851 11.4082 24.7742 11.0215 24.2183 11.0215C23.6624 11.0215 23.2756 11.4082 23.2756 11.9883V13.656C19.6743 13.9944 17.0398 16.2664 17.0398 19.4084C17.0398 22.3088 19.0459 24.0974 23.0098 25.0159L23.2756 25.0884V32.8469C20.8103 32.5569 19.2151 31.1792 18.8767 29.2698C18.6833 28.593 18.2966 28.2546 17.6924 28.2546C17.0156 28.2546 16.5564 28.738 16.5564 29.439C16.5564 29.6565 16.6047 29.874 16.6531 30.1157C17.2815 32.8953 19.916 34.7563 23.2756 35.0464V36.8833C23.2756 37.4634 23.6624 37.8501 24.2183 37.8501ZM23.2756 22.6956L23.1064 22.6472C20.6169 21.9705 19.4084 20.9553 19.4084 19.3118C19.4084 17.5715 20.9795 16.218 23.2756 15.9038V22.6956ZM25.1851 25.5718L25.7168 25.6926C28.3997 26.3936 29.4631 27.457 29.4631 29.1973C29.4631 31.155 27.9163 32.6052 25.1851 32.8469V25.5718Z" fill="#E0764C"/>
</g>
<defs>
<filter id="filter0_d_245_32" x="0" y="0" width="55.9844" height="55.9844" filterUnits="userSpaceOnUse" color-interpolation-filters="sRGB">
<feFlood flood-opacity="0" result="BackgroundImageFix"/>
<feColorMatrix in="SourceAlpha" type="matrix" values="0 0 0 0 0 0 0 0 0 0 0 0 0 0 0 0 0 0 127 0" result="hardAlpha"/>
<feOffset dx="3.75" dy="3.75"/>
<feGaussianBlur stdDeviation="1.875"/>
<feComposite in2="hardAlpha" operator="out"/>
<feColorMatrix type="matrix" values="0 0 0 0 0.0196078 0 0 0 0 0.207843 0 0 0 0 0.317647 0 0 0 0.2 0"/>
<feBlend mode="normal" in2="BackgroundImageFix" result="effect1_dropShadow_245_32"/>
<feBlend mode="normal" in="SourceGraphic" in2="effect1_dropShadow_245_32" result="shape"/>
</filter>
</defs>
</svg>
