<svg width="48" height="48" viewBox="0 0 48 48" fill="none" xmlns="http://www.w3.org/2000/svg">
<g filter="url(#filter0_d_245_480)">
<path d="M20.1018 40.1212C21.0452 40.1212 21.5618 39.4923 21.5618 38.3468V24.6456C21.5618 19.5694 27.0422 11.8429 33.0842 7.82237L35.1731 10.7198C35.9592 11.7755 36.9026 11.5509 37.3069 10.3155L40.092 2.25205C40.429 1.21885 39.8899 0.522561 38.8342 0.522561L30.2991 0.679788C29.0188 0.702249 28.5247 1.5333 29.2659 2.58897L31.3098 5.37412C25.4924 9.43955 20.7307 16.2003 20.1467 19.6817H20.0569C19.4504 16.1778 14.6887 9.41709 8.89381 5.35166L10.8928 2.70127C11.679 1.69053 11.1848 0.837014 9.90455 0.792092L1.36939 0.477639C0.313728 0.432717 -0.225335 1.12901 0.0891184 2.16221L2.71705 10.2706C3.09888 11.506 4.04224 11.753 4.82838 10.7198L7.05201 7.77744C13.1165 11.798 18.6194 19.547 18.6194 24.6456V38.3468C18.6194 39.4923 19.136 40.1212 20.1018 40.1212Z" fill="white"/>
</g>
<defs>
<filter id="filter0_d_245_480" x="0" y="0.475586" width="47.6924" height="47.1455" filterUnits="userSpaceOnUse" color-interpolation-filters="sRGB">
<feFlood flood-opacity="0" result="BackgroundImageFix"/>
<feColorMatrix in="SourceAlpha" type="matrix" values="0 0 0 0 0 0 0 0 0 0 0 0 0 0 0 0 0 0 127 0" result="hardAlpha"/>
<feOffset dx="3.75" dy="3.75"/>
<feGaussianBlur stdDeviation="1.875"/>
<feComposite in2="hardAlpha" operator="out"/>
<feColorMatrix type="matrix" values="0 0 0 0 0.0196078 0 0 0 0 0.207843 0 0 0 0 0.317647 0 0 0 0.2 0"/>
<feBlend mode="normal" in2="BackgroundImageFix" result="effect1_dropShadow_245_480"/>
<feBlend mode="normal" in="SourceGraphic" in2="effect1_dropShadow_245_480" result="shape"/>
</filter>
</defs>
</svg>
