<svg width="68" height="56" viewBox="0 0 68 56" fill="none" xmlns="http://www.w3.org/2000/svg">
<g filter="url(#filter0_d_245_482)">
<path d="M15.7002 34.6348H18.957C20.2373 34.6348 21.2256 33.8711 21.5176 32.6357L22.1914 29.6709C22.3262 29.6035 22.5059 29.5586 22.6406 29.4912L25.2686 31.0635C26.3467 31.7148 27.582 31.5801 28.4805 30.6816L30.749 28.3906C31.6924 27.4697 31.8047 26.2344 31.1309 25.1787L29.5361 22.6182C29.6035 22.4609 29.6709 22.3037 29.7158 22.124L32.6582 21.4277C33.8936 21.1357 34.6572 20.1475 34.6572 18.8672V15.7676C34.6572 14.4873 33.916 13.499 32.6582 13.207L29.7158 12.5107C29.6709 12.3311 29.6035 12.1738 29.5361 12.0166L31.1309 9.45605C31.8047 8.37793 31.6924 7.16504 30.749 6.24414L28.4805 3.95312C27.582 3.05469 26.3467 2.91992 25.2686 3.57129L22.6406 5.14355C22.4834 5.07617 22.3262 5.03125 22.1689 4.96387L21.5176 1.99902C21.248 0.763672 20.2373 0 18.957 0H15.7002C14.4199 0 13.4316 0.763672 13.1396 1.99902L12.4658 4.96387C12.3086 5.03125 12.1514 5.07617 11.9941 5.14355L9.38867 3.57129C8.31055 2.91992 7.0752 3.05469 6.17676 3.95312L3.9082 6.24414C2.96484 7.16504 2.875 8.40039 3.52637 9.45605L5.12109 12.0166C5.05371 12.1738 4.98633 12.3311 4.94141 12.5107L1.99902 13.207C0.741211 13.499 0 14.4873 0 15.7676V18.8672C0 20.1475 0.741211 21.1357 1.99902 21.4277L4.94141 22.124C4.98633 22.3037 5.05371 22.4609 5.12109 22.6182L3.52637 25.1787C2.85254 26.2344 2.96484 27.4697 3.9082 28.3906L6.17676 30.6816C7.0752 31.5801 8.28809 31.7148 9.36621 31.0635L12.0166 29.4912C12.1514 29.5586 12.3311 29.6035 12.4658 29.6709L13.1396 32.6357C13.4316 33.8711 14.4199 34.6348 15.7002 34.6348ZM16.0371 32.1641C15.6777 32.1641 15.4756 31.9844 15.3857 31.625L14.4648 27.7617C13.5215 27.5146 12.6455 27.0879 11.9043 26.7061L8.53516 28.7725C8.19824 28.9746 7.95117 28.9521 7.68164 28.6826L5.8623 26.8857C5.59277 26.6387 5.57031 26.3916 5.79492 26.0547L7.83887 22.708C7.54688 22.0342 7.05273 21.1357 6.82812 20.1475L2.9873 19.2266C2.62793 19.1367 2.44824 18.957 2.44824 18.5977V16.0371C2.44824 15.6777 2.62793 15.498 2.9873 15.4082L6.82812 14.4873C7.05273 13.499 7.54688 12.6006 7.83887 11.9268L5.79492 8.58008C5.57031 8.24316 5.59277 7.99609 5.8623 7.74902L7.68164 5.95215C7.95117 5.68262 8.19824 5.66016 8.53516 5.8623L11.9043 7.92871C12.6455 7.54688 13.5215 7.12012 14.4648 6.87305L15.3857 3.00977C15.4756 2.65039 15.6777 2.4707 16.0371 2.4707H18.6201C18.9795 2.4707 19.1816 2.65039 19.2715 3.00977L20.1924 6.87305C21.1357 7.12012 22.0117 7.54688 22.7529 7.92871L26.1221 5.8623C26.459 5.66016 26.7061 5.68262 26.9756 5.95215L28.7949 7.74902C29.0645 7.99609 29.0869 8.24316 28.8623 8.58008L26.8184 11.9268C27.1104 12.6006 27.6045 13.499 27.8516 14.4873L31.6699 15.4082C32.0293 15.498 32.209 15.6777 32.209 16.0371V18.5977C32.209 18.957 32.0293 19.1367 31.6699 19.2266L27.8516 20.1475C27.6045 21.1357 27.1104 22.0342 26.8184 22.708L28.8623 26.0547C29.0869 26.3916 29.0645 26.6387 28.7949 26.8857L26.9756 28.6826C26.7061 28.9521 26.459 28.9746 26.1221 28.7725L22.7529 26.7061C22.0117 27.0879 21.1357 27.5146 20.1924 27.7617L19.2715 31.625C19.1816 31.9844 18.9795 32.1641 18.6201 32.1641H16.0371ZM17.3174 24.0781C21.0459 24.0781 24.0557 21.0459 24.0557 17.3174C24.0557 13.6113 21.0459 10.5791 17.3174 10.5791C13.5889 10.5791 10.5791 13.6113 10.5791 17.3174C10.5791 21.0234 13.5889 24.0781 17.3174 24.0781ZM17.3174 21.4951C15.0264 21.4951 13.1396 19.6533 13.1396 17.3174C13.1396 15.0264 15.0264 13.1396 17.3174 13.1396C19.6084 13.1396 21.4727 15.0264 21.4727 17.3174C21.4727 19.6309 19.6084 21.4951 17.3174 21.4951ZM44.585 48.0664H47.0781C48.291 48.0664 49.2119 47.415 49.4141 46.3369L49.8857 43.9111C50.043 43.8438 50.2002 43.7988 50.3574 43.7314L52.4238 45.0566C53.3447 45.6406 54.4453 45.5059 55.2988 44.6523L57.0508 42.8779C57.8818 42.0244 58.0615 40.9238 57.4326 40.0029L56.085 37.959C56.1523 37.8242 56.2197 37.6895 56.2646 37.5098L58.6904 37.0156C59.7461 36.791 60.4199 35.8926 60.4199 34.7021V32.2314C60.4199 31.041 59.7461 30.1426 58.6904 29.918L56.2646 29.4238C56.2197 29.2666 56.1523 29.1094 56.085 28.9746L57.4326 26.9531C58.0615 26.0098 57.8818 24.9092 57.0508 24.0557L55.2988 22.2812C54.4453 21.4277 53.3447 21.293 52.4238 21.877L50.3574 23.2021C50.2002 23.1348 50.043 23.0898 49.8857 23.0225L49.4141 20.5967C49.2119 19.5186 48.291 18.8672 47.0781 18.8672H44.585C43.3721 18.8672 42.4512 19.5186 42.249 20.5967L41.7773 23.0225C41.6201 23.0898 41.4629 23.1348 41.3057 23.2021L39.2393 21.877C38.3184 21.293 37.2178 21.4277 36.3643 22.2812L34.6123 24.0557C33.7588 24.9092 33.6016 26.0098 34.2305 26.9531L35.5781 28.9746C35.5107 29.1094 35.4434 29.2666 35.3984 29.4238L32.9727 29.918C31.917 30.1426 31.2432 31.041 31.2432 32.2314V34.7021C31.2432 35.8926 31.917 36.791 32.9727 37.0156L35.3984 37.5098C35.4434 37.6895 35.5107 37.8242 35.5781 37.959L34.2305 40.0029C33.6016 40.9238 33.7588 42.0244 34.6123 42.8779L36.3643 44.6523C37.2178 45.5059 38.3184 45.6406 39.2393 45.0566L41.3057 43.7314C41.4629 43.7988 41.6201 43.8438 41.7773 43.9111L42.249 46.3369C42.4512 47.415 43.3721 48.0664 44.585 48.0664ZM45.0117 45.708C44.6748 45.708 44.4727 45.5283 44.4053 45.2363L43.6416 42.0244C42.833 41.8223 42.0693 41.5078 41.3057 41.0361L38.5205 42.8105C38.2734 42.9678 38.0039 42.9229 37.7568 42.6982L36.5889 41.5078C36.3418 41.2607 36.2969 41.0137 36.4541 40.7441L38.2061 38.0039C37.959 37.4424 37.4648 36.5889 37.2627 35.623L34.0732 34.9043C33.7588 34.8594 33.6016 34.6348 33.6016 34.2979V32.6357C33.6016 32.2988 33.7588 32.0742 34.0732 32.0293L37.2627 31.3105C37.4648 30.3447 37.959 29.4912 38.2061 28.9297L36.4541 26.1895C36.2969 25.9199 36.3418 25.6729 36.5889 25.4258L37.7568 24.2354C38.0039 24.0107 38.2734 23.9658 38.5205 24.123L41.3057 25.8975C42.0693 25.4258 42.833 25.1113 43.6416 24.9092L44.4053 21.6973C44.4727 21.4053 44.6748 21.2256 45.0117 21.2256H46.6514C46.9883 21.2256 47.1904 21.4053 47.2578 21.6973L47.999 24.9092C48.8301 25.1113 49.5938 25.4258 50.3574 25.8975L53.1426 24.123C53.3896 23.9658 53.6592 24.0107 53.9062 24.2354L55.0742 25.4258C55.3213 25.6729 55.3438 25.9199 55.209 26.1895L53.457 28.9297C53.6816 29.4912 54.1758 30.3447 54.4004 31.3105L57.5898 32.0293C57.9043 32.0742 58.0615 32.2988 58.0615 32.6357V34.2979C58.0615 34.6348 57.9043 34.8594 57.5898 34.9043L54.4004 35.623C54.1758 36.5889 53.6816 37.4424 53.457 38.0039L55.209 40.7441C55.3438 41.0137 55.3213 41.2607 55.0742 41.5078L53.9062 42.6982C53.6592 42.9229 53.3896 42.9678 53.1426 42.8105L50.3574 41.0361C49.5938 41.5078 48.8301 41.8223 47.999 42.0244L47.2578 45.2363C47.1904 45.5283 46.9883 45.708 46.6514 45.708H45.0117ZM45.8203 38.5654C48.6279 38.5654 50.8965 36.2744 50.8965 33.4668C50.8965 30.6816 48.6279 28.3906 45.8203 28.3906C43.0127 28.3906 40.7217 30.6816 40.7217 33.4668C40.7217 36.252 43.0127 38.5654 45.8203 38.5654ZM45.8203 36.2969C44.2705 36.2969 43.0127 35.0391 43.0127 33.4668C43.0127 31.917 44.2705 30.6592 45.8203 30.6592C47.3477 30.6592 48.6055 31.917 48.6055 33.4668C48.6055 35.0166 47.3477 36.2969 45.8203 36.2969Z" fill="white"/>
</g>
<defs>
<filter id="filter0_d_245_482" x="0" y="0" width="67.9199" height="55.5664" filterUnits="userSpaceOnUse" color-interpolation-filters="sRGB">
<feFlood flood-opacity="0" result="BackgroundImageFix"/>
<feColorMatrix in="SourceAlpha" type="matrix" values="0 0 0 0 0 0 0 0 0 0 0 0 0 0 0 0 0 0 127 0" result="hardAlpha"/>
<feOffset dx="3.75" dy="3.75"/>
<feGaussianBlur stdDeviation="1.875"/>
<feComposite in2="hardAlpha" operator="out"/>
<feColorMatrix type="matrix" values="0 0 0 0 0.0196078 0 0 0 0 0.207843 0 0 0 0 0.317647 0 0 0 0.2 0"/>
<feBlend mode="normal" in2="BackgroundImageFix" result="effect1_dropShadow_245_482"/>
<feBlend mode="normal" in="SourceGraphic" in2="effect1_dropShadow_245_482" result="shape"/>
</filter>
</defs>
</svg>
