<svg width="60" height="53" viewBox="0 0 60 53" fill="none" xmlns="http://www.w3.org/2000/svg">
<g filter="url(#filter0_d_245_30)">
<path d="M0 42.9983C0 44.0134 0.628418 44.6418 1.64355 44.6418H50.0559C50.8777 44.6418 51.5544 44.0134 51.5544 43.1675C51.5544 42.3215 50.8777 41.6931 50.0559 41.6931H3.57715C3.11792 41.6931 2.99707 41.5481 2.99707 41.113V27.0945L14.5745 20.3994C15.2754 21.1729 16.3147 21.6804 17.4507 21.6804C18.4417 21.6804 19.3601 21.2937 20.0369 20.6895L25.4026 25.4026C25.1609 25.886 25.04 26.4419 25.04 27.022C25.04 29.1731 26.7803 30.9133 28.9314 30.9133C31.0583 30.9133 32.7986 29.1731 32.7986 27.022C32.7986 26.7561 32.7744 26.4902 32.7261 26.2244L44.7385 18.8042C45.3911 19.2876 46.1887 19.5776 47.0588 19.5776C49.21 19.5776 50.9502 17.8374 50.9502 15.6863C50.9502 13.5593 49.21 11.8191 47.0588 11.8191C44.9319 11.8191 43.1917 13.5593 43.1917 15.6863C43.1917 16.1213 43.24 16.5081 43.385 16.8948L31.5901 24.1941C30.8892 23.5415 29.9465 23.1548 28.9314 23.1548C28.1821 23.1548 27.4812 23.3481 26.877 23.7107L21.2212 18.7317C21.2937 18.4417 21.342 18.1274 21.342 17.7891C21.342 15.6621 19.6018 13.9219 17.4507 13.9219C15.2996 13.9219 13.5593 15.6621 13.5593 17.7891C13.5593 17.9583 13.5835 18.1274 13.6077 18.2725L2.99707 24.4116V1.49854C2.99707 0.700928 2.36865 0 1.49854 0C0.652588 0 0 0.700928 0 1.49854V42.9983Z" fill="#E0764C"/>
</g>
<defs>
<filter id="filter0_d_245_30" x="0" y="0" width="59.0547" height="52.1416" filterUnits="userSpaceOnUse" color-interpolation-filters="sRGB">
<feFlood flood-opacity="0" result="BackgroundImageFix"/>
<feColorMatrix in="SourceAlpha" type="matrix" values="0 0 0 0 0 0 0 0 0 0 0 0 0 0 0 0 0 0 127 0" result="hardAlpha"/>
<feOffset dx="3.75" dy="3.75"/>
<feGaussianBlur stdDeviation="1.875"/>
<feComposite in2="hardAlpha" operator="out"/>
<feColorMatrix type="matrix" values="0 0 0 0 0.0196078 0 0 0 0 0.207843 0 0 0 0 0.317647 0 0 0 0.2 0"/>
<feBlend mode="normal" in2="BackgroundImageFix" result="effect1_dropShadow_245_30"/>
<feBlend mode="normal" in="SourceGraphic" in2="effect1_dropShadow_245_30" result="shape"/>
</filter>
</defs>
</svg>
